<svg xmlns="http://www.w3.org/2000/svg" shape-rendering="geometricPrecision" text-rendering="geometricPrecision" image-rendering="optimizeQuality" fill-rule="evenodd" clip-rule="evenodd" viewBox="0 0 512 519.06"><path fill="#0ef" d="M0 512.3v-9.69c0-96.6 52.66-103.65 105.9-110.77 38.84-5.2 78.03-10.45 91.87-57.68l-.76-.67c-1.92-1.71-4.34-3.8-6.72-5.84l-.39-.36c-17.5-15.08-32.05-27.83-34.67-58.87-8.87-.91-16.76-7.48-22.31-16.28-4.5-7.15-7.51-15.88-8.08-23.96-.22-2.99-.11-5.92.36-8.7h-6.25c-2.32 0-4.22-1.9-4.22-4.22v-23.77c0-2.58 2.11-4.68 4.68-4.68h7.9v-11.85c0-5.29 2.16-10.1 5.64-13.58 1.78-1.78 3.89-3.21 6.25-4.18-1.05-28.14-5.31-57.01-29.73-64.4C177.52 8.7 255.96-37.03 314.86 37.78c56.34 2.96 85.87 74.62 67.34 127.79 1.59 2.79 2.49 5.99 2.49 9.39v11.85h7.9c2.57 0 4.68 2.1 4.68 4.68v23.77c0 2.32-1.9 4.22-4.22 4.22h-8.36v4.7c0 3.88-.55 7.63-1.57 11.18-1.27 7.42-4.02 14.98-7.91 20.86-5.31 8.03-12.49 13.28-20.95 12.48-.47 28.16-14.15 41.08-32.09 57.93 14.2 47.41 52.22 54.77 89.58 62C462.42 398.43 512 408.01 512 500.46v11.84c0 3.73-3.03 6.76-6.76 6.76H6.76c-3.73 0-6.76-3.03-6.76-6.76zm154.52-331.64h15.87c3.38 0 6.14 2.75 6.14 6.14v15.44c0 3.38-2.76 6.13-6.14 6.13h-15.87c-3.38 0-6.14-2.75-6.14-6.13V186.8c0-3.39 2.76-6.14 6.14-6.14zm-7.99-14.82c-5.01 0-9.11 4.12-9.11 9.12v49.22c0 16.77 13.72 30.51 30.5 30.51h50.71c19.06 0 28.4-25.97 36.92-25.97 9.51 0 17.98 25.97 37.82 25.97h50.71c16.77 0 30.5-13.73 30.5-30.51v-49.22c0-5.01-4.1-9.12-9.12-9.12H146.53zm39.51-10.1h157.5c-1.37-6.97-3.38-13-5.89-18.25-6.93-14.45-17.98-23.2-29.96-29.74-26.58 20.37-45.3 22.68-63.97 24.99-15.44 1.91-30.85 3.81-51.27 17.94-2.32 1.6-4.46 3.29-6.41 5.06zM340.7 264.79h-47.33c-16.34 0-25.77-11.02-33.48-20.03-2.74-3.21-3.62-5.93-4.34-5.93-1.24 0-.93 2.53-3.51 5.57-7.71 9.07-17.34 20.39-33.41 20.39h-50.14c1.72 27.51 14.61 38.84 30.21 52.28l.41.33c2.08 1.78 4.21 3.62 6.89 6 16.57 14.74 34 22.36 51.09 22.35 16.62-.01 33.25-7.27 48.74-22.22 2.5-2.41 4.78-4.56 6.99-6.63 16.22-15.24 28.42-26.71 27.88-52.11zm-121.01 24.18h68.32c6.34-.25 7.98 3.1 5.85 7.73-18.27 41.2-78.45 20.91-79.24-.57-.1-3.16 1.5-6.89 5.07-7.16zm24-15.67a5.273 5.273 0 0 1-1.84-3.55 5.21 5.21 0 0 1 1.21-3.83 5.228 5.228 0 0 1 3.6-1.88c1.33-.12 2.74.27 3.83 1.21.78.67 1.68 1.14 2.58 1.49 1.01.39 2.03.62 2.81.62.78 0 1.8-.19 2.9-.58.89-.36 1.83-.86 2.65-1.49l.2-.16c1.09-.86 2.46-1.21 3.75-1.09 1.29.12 2.54.75 3.48 1.8l.19.23a5.32 5.32 0 0 1 1.1 3.75c-.12 1.34-.78 2.62-1.92 3.56a20.469 20.469 0 0 1-5.9 3.36c-2.23.82-4.49 1.22-6.52 1.17-2.04-.03-4.22-.46-6.38-1.25-2.03-.78-3.98-1.87-5.66-3.32l-.08-.04zm-15.67 30.29-3.08-8.01h59.34l-2.67 8.01h-53.59zm84.02 33.71c-20.7 28.54-81.05 29.16-103.58 6.5-5.62 23.44-20.22 39.63-41.81 50.17 61.91 37.76 122.95 36.64 183.01-7.9-23.11-10.49-34.78-27.22-37.62-48.77z"/></svg>